<mxfile host="app.diagrams.net" modified="2024-04-15T14:18:21.190Z" agent="Mozilla/5.0 (Macintosh; Intel Mac OS X 10_15_7) AppleWebKit/605.1.15 (KHTML, like Gecko) Version/17.2.1 Safari/605.1.15" version="24.2.5" etag="oVAqw9s7qYD_P4g_qnUy" type="github">
  <diagram name="Pagina-1" id="dZTMDeUGFTSybffZdAGH">
    <mxGraphModel>
      <root>
        <mxCell id="0" />
        <mxCell id="1" parent="0" />
      </root>
    </mxGraphModel>
  </diagram>
</mxfile>
